<svg width="64" height="57" viewBox="0 0 64 57" fill="none" xmlns="http://www.w3.org/2000/svg">
<g clip-path="url(#clip0_17_399)">
<path d="M37.413 50.2779V40.3303L33.8833 38.001V57.0001L37.413 50.2779Z" fill="url(#paint0_linear_17_399)"/>
<path d="M60.4703 35.6688L37.413 50.2778L33.8833 56.9999L64 38.0009V18.999L60.4703 25.7212V35.6688Z" fill="url(#paint1_linear_17_399)"/>
<path d="M33.8833 18.9991L64 38.0009V18.9991L33.8833 0V18.9991Z" fill="url(#paint2_linear_17_399)"/>
<path d="M33.8833 18.9991H64L33.8833 0V18.9991Z" fill="url(#paint3_linear_17_399)"/>
<path d="M46.0958 30.2949L33.8833 38.0009L37.413 40.3302L49.682 32.5585L46.0958 30.2949Z" fill="url(#paint4_linear_17_399)"/>
<path d="M26.5897 6.72216V16.6698L30.1194 18.9991V0L26.5897 6.72216Z" fill="url(#paint5_linear_17_399)"/>
<path d="M3.52968 21.3312L26.5897 6.72216L30.1194 0L0 18.9991V38.0009L3.52968 31.2788V21.3312Z" fill="url(#paint6_linear_17_399)"/>
<path d="M30.1194 38.0009L0 18.999V38.0009L30.1194 56.9999V38.0009Z" fill="url(#paint7_linear_17_399)"/>
<path d="M30.1194 38.001H0L30.1194 57.0001V38.001Z" fill="url(#paint8_linear_17_399)"/>
<path d="M17.9042 26.7052L30.1194 18.9992L26.5898 16.6699L14.318 24.4417L17.9042 26.7052Z" fill="url(#paint9_linear_17_399)"/>
</g>
<defs>
<linearGradient id="paint0_linear_17_399" x1="38.7969" y1="34.5234" x2="29.0277" y2="63.3144" gradientUnits="userSpaceOnUse">
<stop stop-color="#18FFFF"/>
<stop offset="1" stop-color="#651FFF"/>
</linearGradient>
<linearGradient id="paint1_linear_17_399" x1="64" y1="38.0008" x2="33.8806" y2="38.0008" gradientUnits="userSpaceOnUse">
<stop stop-color="#18FFFF"/>
<stop offset="1" stop-color="#651FFF"/>
</linearGradient>
<linearGradient id="paint2_linear_17_399" x1="78.6545" y1="35.1016" x2="35.3821" y2="12.4705" gradientUnits="userSpaceOnUse">
<stop stop-color="#651FFF"/>
<stop offset="1" stop-color="#18FFFF"/>
</linearGradient>
<linearGradient id="paint3_linear_17_399" x1="64.4092" y1="26.1049" x2="22.9202" y2="4.32312" gradientUnits="userSpaceOnUse">
<stop stop-color="#18FFFF"/>
<stop offset="1" stop-color="#651FFF"/>
</linearGradient>
<linearGradient id="paint4_linear_17_399" x1="33.8833" y1="35.3126" x2="52.5225" y2="35.3126" gradientUnits="userSpaceOnUse">
<stop stop-color="#18FFFF"/>
<stop offset="1" stop-color="#651FFF"/>
</linearGradient>
<linearGradient id="paint5_linear_17_399" x1="25.2032" y1="22.4766" x2="34.9723" y2="-6.31433" gradientUnits="userSpaceOnUse">
<stop stop-color="#18FFFF"/>
<stop offset="1" stop-color="#651FFF"/>
</linearGradient>
<linearGradient id="paint6_linear_17_399" x1="0" y1="18.9991" x2="30.1194" y2="18.9991" gradientUnits="userSpaceOnUse">
<stop stop-color="#18FFFF"/>
<stop offset="1" stop-color="#651FFF"/>
</linearGradient>
<linearGradient id="paint7_linear_17_399" x1="-14.6545" y1="21.8984" x2="28.6179" y2="44.5295" gradientUnits="userSpaceOnUse">
<stop stop-color="#651FFF"/>
<stop offset="1" stop-color="#18FFFF"/>
</linearGradient>
<linearGradient id="paint8_linear_17_399" x1="-0.409238" y1="30.8952" x2="41.0798" y2="52.6769" gradientUnits="userSpaceOnUse">
<stop stop-color="#18FFFF"/>
<stop offset="1" stop-color="#651FFF"/>
</linearGradient>
<linearGradient id="paint9_linear_17_399" x1="30.1167" y1="21.6876" x2="11.4776" y2="21.6876" gradientUnits="userSpaceOnUse">
<stop stop-color="#18FFFF"/>
<stop offset="1" stop-color="#651FFF"/>
</linearGradient>
<clipPath id="clip0_17_399">
<rect width="64" height="57" fill="white"/>
</clipPath>
</defs>
</svg>
